<svg width="1157" height="320" viewBox="0 0 1157 320" fill="none" xmlns="http://www.w3.org/2000/svg">
<path d="M488.53 126.85C488.53 134.11 487.173 140.453 484.46 145.88C481.747 151.307 478.08 155.89 473.46 159.63C468.84 163.37 463.67 166.377 457.95 168.65L497.88 233H457.07L424.07 174.7H413.84V233H377.76V80.54H425.72C446.473 80.54 462.13 84.3167 472.69 91.87C483.25 99.4233 488.53 111.083 488.53 126.85ZM451.35 126.85C451.35 119.517 449.187 114.2 444.86 110.9C440.607 107.527 434.263 105.84 425.83 105.84H413.84V149.95H427.26C435.107 149.95 441.083 148.117 445.19 144.45C449.297 140.783 451.35 134.917 451.35 126.85ZM623.964 156.66C623.964 172.793 621.654 186.873 617.034 198.9C612.414 210.853 605.557 220.167 596.464 226.84C587.444 233.44 576.261 236.74 562.914 236.74C549.641 236.74 538.457 233.513 529.364 227.06C520.271 220.533 513.414 211.293 508.794 199.34C504.174 187.387 501.864 173.16 501.864 156.66C501.864 140.527 504.174 126.483 508.794 114.53C513.414 102.577 520.271 93.3 529.364 86.7C538.457 80.0267 549.641 76.69 562.914 76.69C576.261 76.69 587.444 79.9167 596.464 86.37C605.557 92.8233 612.414 102.027 617.034 113.98C621.654 125.933 623.964 140.16 623.964 156.66ZM587.004 156.66C587.004 137.887 585.134 124.247 581.394 115.74C577.654 107.233 571.494 102.98 562.914 102.98C554.334 102.98 548.174 107.27 544.434 115.85C540.694 124.357 538.824 137.96 538.824 156.66C538.824 175.433 540.731 189.073 544.544 197.58C548.357 206.087 554.481 210.34 562.914 210.34C571.714 210.34 577.911 206.05 581.504 197.47C585.171 188.817 587.004 175.213 587.004 156.66ZM717.268 186.91C717.268 181.557 716.205 177.34 714.078 174.26C712.025 171.107 709.091 168.87 705.278 167.55C701.538 166.23 697.138 165.57 692.078 165.57H677.228V206.71H690.538C694.058 206.71 697.395 206.453 700.548 205.94C703.775 205.427 706.635 204.473 709.128 203.08C711.695 201.687 713.675 199.707 715.068 197.14C716.535 194.5 717.268 191.09 717.268 186.91ZM711.548 123.11C711.548 117.097 709.641 112.77 705.828 110.13C702.088 107.417 696.258 106.06 688.338 106.06H677.228V141.37H689.438C697.211 141.37 702.821 139.94 706.268 137.08C709.788 134.22 711.548 129.563 711.548 123.11ZM754.448 188.34C754.448 197.14 752.761 204.437 749.388 210.23C746.015 216.023 741.395 220.57 735.528 223.87C729.661 227.17 722.951 229.517 715.398 230.91C707.918 232.303 700.035 233 691.748 233H641.148V80.54H689.438C697.285 80.54 704.691 81.2 711.658 82.52C718.698 83.7667 724.931 85.8933 730.358 88.9C735.785 91.8333 740.038 95.83 743.118 100.89C746.271 105.877 747.848 112.073 747.848 119.48C747.848 125.567 746.565 130.847 743.998 135.32C741.431 139.72 738.021 143.35 733.768 146.21C729.515 148.997 724.895 151.013 719.908 152.26C725.335 153.14 730.688 154.863 735.968 157.43C741.321 159.923 745.721 163.663 749.168 168.65C752.688 173.637 754.448 180.2 754.448 188.34ZM887.792 156.66C887.792 172.793 885.482 186.873 880.862 198.9C876.242 210.853 869.386 220.167 860.292 226.84C851.272 233.44 840.089 236.74 826.742 236.74C813.469 236.74 802.286 233.513 793.192 227.06C784.099 220.533 777.242 211.293 772.622 199.34C768.002 187.387 765.692 173.16 765.692 156.66C765.692 140.527 768.002 126.483 772.622 114.53C777.242 102.577 784.099 93.3 793.192 86.7C802.286 80.0267 813.469 76.69 826.742 76.69C840.089 76.69 851.272 79.9167 860.292 86.37C869.386 92.8233 876.242 102.027 880.862 113.98C885.482 125.933 887.792 140.16 887.792 156.66ZM850.832 156.66C850.832 137.887 848.962 124.247 845.222 115.74C841.482 107.233 835.322 102.98 826.742 102.98C818.162 102.98 812.002 107.27 808.262 115.85C804.522 124.357 802.652 137.96 802.652 156.66C802.652 175.433 804.559 189.073 808.372 197.58C812.186 206.087 818.309 210.34 826.742 210.34C835.542 210.34 841.739 206.05 845.332 197.47C848.999 188.817 850.832 175.213 850.832 156.66ZM976.476 108.15V233H940.396V108.15H897.606V80.54H1021.03L1017.29 108.15H976.476ZM1149.53 188.45C1149.53 197.91 1147.04 206.27 1142.05 213.53C1137.14 220.79 1130.06 226.473 1120.82 230.58C1111.58 234.687 1100.47 236.74 1087.49 236.74C1073.12 236.74 1061.05 234.65 1051.3 230.47C1041.62 226.217 1033.59 220.973 1027.21 214.74L1045.47 194.5C1051.12 199.413 1057.35 203.227 1064.17 205.94C1070.99 208.58 1078.47 209.9 1086.61 209.9C1091.67 209.9 1096.11 209.167 1099.92 207.7C1103.73 206.233 1106.7 204.107 1108.83 201.32C1110.96 198.533 1112.02 195.16 1112.02 191.2C1112.02 187.46 1111.18 184.307 1109.49 181.74C1107.8 179.173 1104.94 176.863 1100.91 174.81C1096.95 172.757 1091.41 170.667 1084.3 168.54C1072.42 164.873 1062.85 160.84 1055.59 156.44C1048.4 152.04 1043.16 146.943 1039.86 141.15C1036.63 135.357 1035.02 128.61 1035.02 120.91C1035.02 111.597 1037.59 103.64 1042.72 97.04C1047.93 90.44 1054.89 85.4167 1063.62 81.97C1072.35 78.45 1081.95 76.69 1092.44 76.69C1104.25 76.69 1114.66 78.4133 1123.68 81.86C1132.7 85.2333 1140.51 90.0733 1147.11 96.38L1130.06 115.96C1124.93 111.633 1119.39 108.443 1113.45 106.39C1107.51 104.263 1101.46 103.2 1095.3 103.2C1090.75 103.2 1086.76 103.787 1083.31 104.96C1079.86 106.06 1077.19 107.71 1075.28 109.91C1073.37 112.11 1072.42 114.86 1072.42 118.16C1072.42 121.387 1073.34 124.1 1075.17 126.3C1077 128.5 1080.19 130.59 1084.74 132.57C1089.29 134.477 1095.59 136.713 1103.66 139.28C1113.27 142.213 1121.48 145.733 1128.3 149.84C1135.19 153.873 1140.44 158.97 1144.03 165.13C1147.7 171.29 1149.53 179.063 1149.53 188.45Z" fill="#1EB100"/>
<rect width="320" height="320" rx="73" fill="#1EB100"/>
<g clip-path="url(#clip0_74_55)">
<path d="M212.42 73.6781C211.431 73.7962 210.545 74.313 209.939 75.0956L198.599 89.5069C196.473 86.7457 193.136 84.9 189.386 84.9H178.754C172.331 84.9 167.06 90.1713 167.06 96.5944V126.126C167.06 132.549 172.331 137.82 178.754 137.82H189.386C193.136 137.82 196.473 135.974 198.599 133.213L209.939 147.624C211.047 149.012 212.981 149.411 214.546 148.569L251.992 128.134C253.557 127.292 254.281 125.461 253.734 123.778C253.173 122.08 251.505 121.046 249.747 121.282C249.29 121.356 248.847 121.519 248.448 121.755L213.837 140.773L201.08 124.59V98.2481L213.837 82.065L248.448 100.965C249.6 101.748 251.091 101.807 252.302 101.127C253.513 100.448 254.236 99.1488 254.162 97.7608C254.103 96.3729 253.262 95.1473 251.992 94.5862L214.546 74.1506C213.897 73.7815 213.158 73.619 212.42 73.6781ZM99.02 77.34C80.2677 77.34 65 92.6076 65 111.36C65 130.112 80.2677 145.38 99.02 145.38C117.772 145.38 133.04 130.112 133.04 111.36C133.04 92.6076 117.772 77.34 99.02 77.34ZM135.639 92.46C138.636 98.2038 140.6 104.45 140.6 111.36C140.6 118.27 138.636 128.296 135.639 134.04H159.382C159.101 132.726 159.146 127.868 159.146 126.48V96.24C159.146 94.852 159.101 93.7741 159.382 92.46H135.639ZM99.02 93.7594C108.691 93.7594 116.621 101.688 116.621 111.36C116.621 121.031 108.691 128.961 99.02 128.961C89.3485 128.961 81.4194 121.031 81.4194 111.36C81.4194 101.688 89.3485 93.7594 99.02 93.7594ZM132.331 136.166C124.742 146.295 112.634 152.94 99.02 152.94C94.3836 152.94 89.9539 152.098 85.79 150.696L118.983 213.302H175.919L132.331 136.166ZM90.9875 220.98C84.8598 220.98 80.12 225.956 80.12 232.32V251.22C80.12 253.42 81.6999 255 83.9 255H212.42C214.62 255 216.2 253.42 216.2 251.22V232.32C216.2 225.956 211.46 220.98 205.332 220.98H90.9875Z" fill="white"/>
</g>
<defs>
<clipPath id="clip0_74_55">
<rect width="189" height="189" fill="white" transform="translate(65 66)"/>
</clipPath>
</defs>
</svg>
